<svg width="467" height="467" viewBox="0 0 467 467" fill="none" xmlns="http://www.w3.org/2000/svg">
<rect x="14.5" y="14.5" width="438" height="438" rx="134.5" fill="#101010"/>
<path d="M245.541 130.455H294.757V273.261C294.69 286.641 291.496 298.34 285.176 308.358C278.856 318.309 270.116 326.041 258.955 331.554C247.861 337.067 235.019 339.824 220.429 339.824C207.52 339.824 195.787 337.571 185.232 333.067C174.743 328.562 166.372 321.57 160.119 312.089C153.934 302.609 150.875 290.473 150.942 275.682H200.662C200.864 280.993 201.872 285.532 203.688 289.297C205.57 292.995 208.159 295.785 211.453 297.668C214.748 299.55 218.681 300.491 223.253 300.491C228.027 300.491 232.061 299.483 235.355 297.466C238.65 295.382 241.137 292.322 242.818 288.288C244.566 284.254 245.474 279.245 245.541 273.261V130.455Z" fill="white"/>
<rect x="14.5" y="14.5" width="438" height="438" rx="134.5" stroke="#0263CB" stroke-width="29"/>
</svg>
