<svg width="390" height="844" viewBox="0 0 390 844" fill="none" xmlns="http://www.w3.org/2000/svg">
<g clip-path="url(#clip0_957_25)">
<rect width="390" height="844" fill="url(#paint0_linear_957_25)"/>
<g filter="url(#filter0_d_957_25)">
<path d="M0 791C0 776.641 11.6406 765 26 765H364C378.359 765 390 776.641 390 791V844H0V791Z" fill="white"/>
</g>
<path d="M133 765H168V766.5C168 767.328 167.328 768 166.5 768H134.5C133.672 768 133 767.328 133 766.5V765Z" fill="#0066CC"/>
<g filter="url(#filter1_f_957_25)">
<path d="M133 768H168V787.5C168 788.328 167.328 789 166.5 789H134.5C133.672 789 133 788.328 133 787.5V768Z" fill="#0066CC"/>
</g>
<path d="M244 785V806H223V785H244ZM245.65 782H221.35C220.6 782 220 782.6 220 783.35V807.65C220 808.25 220.6 809 221.35 809H245.65C246.25 809 247 808.25 247 807.65V783.35C247 782.6 246.25 782 245.65 782ZM232 788H241V791H232V788ZM232 794H241V797H232V794ZM232 800H241V803H232V800ZM226 788H229V791H226V788ZM226 794H229V797H226V794ZM226 800H229V803H226V800Z" fill="#1F1F1F"/>
<path d="M314.5 782C307.048 782 301 788.048 301 795.5C301 802.952 307.048 809 314.5 809C321.952 809 328 802.952 328 795.5C328 788.048 321.952 782 314.5 782ZM319.374 790.559C320.818 790.559 321.979 791.72 321.979 793.165C321.979 794.609 320.818 795.77 319.374 795.77C317.929 795.77 316.768 794.609 316.768 793.165C316.755 791.72 317.929 790.559 319.374 790.559ZM311.274 788.426C313.029 788.426 314.46 789.857 314.46 791.612C314.46 793.367 313.029 794.798 311.274 794.798C309.519 794.798 308.088 793.367 308.088 791.612C308.088 789.844 309.505 788.426 311.274 788.426ZM311.274 800.752V805.814C308.034 804.802 305.469 802.304 304.335 799.118C305.752 797.606 309.289 796.837 311.274 796.837C311.989 796.837 312.894 796.944 313.839 797.134C311.625 798.308 311.274 799.861 311.274 800.752ZM314.5 806.3C314.135 806.3 313.785 806.286 313.434 806.246V800.752C313.434 798.835 317.403 797.876 319.374 797.876C320.818 797.876 323.316 798.403 324.558 799.428C322.978 803.438 319.076 806.3 314.5 806.3Z" fill="#1F1F1F"/>
<path d="M55.083 825.096C54.443 825.096 53.831 825 53.247 824.808C52.663 824.608 52.203 824.352 51.867 824.04L52.311 823.104C52.631 823.384 53.039 823.616 53.535 823.8C54.031 823.984 54.547 824.076 55.083 824.076C55.571 824.076 55.967 824.02 56.271 823.908C56.575 823.796 56.799 823.644 56.943 823.452C57.087 823.252 57.159 823.028 57.159 822.78C57.159 822.492 57.063 822.26 56.871 822.084C56.687 821.908 56.443 821.768 56.139 821.664C55.843 821.552 55.515 821.456 55.155 821.376C54.795 821.296 54.431 821.204 54.063 821.1C53.703 820.988 53.371 820.848 53.067 820.68C52.771 820.512 52.531 820.288 52.347 820.008C52.163 819.72 52.071 819.352 52.071 818.904C52.071 818.472 52.183 818.076 52.407 817.716C52.639 817.348 52.991 817.056 53.463 816.84C53.943 816.616 54.551 816.504 55.287 816.504C55.775 816.504 56.259 816.568 56.739 816.696C57.219 816.824 57.635 817.008 57.987 817.248L57.591 818.208C57.231 817.968 56.851 817.796 56.451 817.692C56.051 817.58 55.663 817.524 55.287 817.524C54.815 817.524 54.427 817.584 54.123 817.704C53.819 817.824 53.595 817.984 53.451 818.184C53.315 818.384 53.247 818.608 53.247 818.856C53.247 819.152 53.339 819.388 53.523 819.564C53.715 819.74 53.959 819.88 54.255 819.984C54.559 820.088 54.891 820.184 55.251 820.272C55.611 820.352 55.971 820.444 56.331 820.548C56.699 820.652 57.031 820.788 57.327 820.956C57.631 821.124 57.875 821.348 58.059 821.628C58.243 821.908 58.335 822.268 58.335 822.708C58.335 823.132 58.219 823.528 57.987 823.896C57.755 824.256 57.395 824.548 56.907 824.772C56.427 824.988 55.819 825.096 55.083 825.096ZM63.8681 825V823.656L63.8081 823.404V821.112C63.8081 820.624 63.6641 820.248 63.3761 819.984C63.0961 819.712 62.6721 819.576 62.1041 819.576C61.7281 819.576 61.3601 819.64 61.0001 819.768C60.6401 819.888 60.3361 820.052 60.0881 820.26L59.6081 819.396C59.9361 819.132 60.3281 818.932 60.7841 818.796C61.2481 818.652 61.7321 818.58 62.2361 818.58C63.1081 818.58 63.7801 818.792 64.2521 819.216C64.7241 819.64 64.9601 820.288 64.9601 821.16V825H63.8681ZM61.7801 825.072C61.3081 825.072 60.8921 824.992 60.5321 824.832C60.1801 824.672 59.9081 824.452 59.7161 824.172C59.5241 823.884 59.4281 823.56 59.4281 823.2C59.4281 822.856 59.5081 822.544 59.6681 822.264C59.8361 821.984 60.1041 821.76 60.4721 821.592C60.8481 821.424 61.3521 821.34 61.9841 821.34H64.0001V822.168H62.0321C61.4561 822.168 61.0681 822.264 60.8681 822.456C60.6681 822.648 60.5681 822.88 60.5681 823.152C60.5681 823.464 60.6921 823.716 60.9401 823.908C61.1881 824.092 61.5321 824.184 61.9721 824.184C62.4041 824.184 62.7801 824.088 63.1001 823.896C63.4281 823.704 63.6641 823.424 63.8081 823.056L64.0361 823.848C63.8841 824.224 63.6161 824.524 63.2321 824.748C62.8481 824.964 62.3641 825.072 61.7801 825.072ZM67.092 825V816.096H68.244V825H67.092ZM70.4436 825V818.64H71.5956V825H70.4436ZM71.0196 817.416C70.7956 817.416 70.6076 817.344 70.4556 817.2C70.3116 817.056 70.2396 816.88 70.2396 816.672C70.2396 816.456 70.3116 816.276 70.4556 816.132C70.6076 815.988 70.7956 815.916 71.0196 815.916C71.2436 815.916 71.4276 815.988 71.5716 816.132C71.7236 816.268 71.7996 816.44 71.7996 816.648C71.7996 816.864 71.7276 817.048 71.5836 817.2C71.4396 817.344 71.2516 817.416 71.0196 817.416ZM73.7951 825V818.64H74.8991V820.368L74.7911 819.936C74.9671 819.496 75.2631 819.16 75.6791 818.928C76.0951 818.696 76.6071 818.58 77.2151 818.58V819.696C77.1671 819.688 77.1191 819.684 77.0711 819.684C77.0311 819.684 76.9911 819.684 76.9511 819.684C76.3351 819.684 75.8471 819.868 75.4871 820.236C75.1271 820.604 74.9471 821.136 74.9471 821.832V825H73.7951Z" fill="#1F1F1F"/>
<path d="M135.272 825V816.6H136.472V825H135.272ZM142.215 818.58C142.735 818.58 143.191 818.68 143.583 818.88C143.983 819.08 144.295 819.384 144.519 819.792C144.743 820.2 144.855 820.716 144.855 821.34V825H143.703V821.472C143.703 820.856 143.551 820.392 143.247 820.08C142.951 819.768 142.531 819.612 141.987 819.612C141.579 819.612 141.223 819.692 140.919 819.852C140.615 820.012 140.379 820.248 140.211 820.56C140.051 820.872 139.971 821.26 139.971 821.724V825H138.819V818.64H139.923V820.356L139.743 819.9C139.951 819.484 140.271 819.16 140.703 818.928C141.135 818.696 141.639 818.58 142.215 818.58ZM146.987 825V818.64H148.139V825H146.987ZM147.563 817.416C147.339 817.416 147.151 817.344 146.999 817.2C146.855 817.056 146.783 816.88 146.783 816.672C146.783 816.456 146.855 816.276 146.999 816.132C147.151 815.988 147.339 815.916 147.563 815.916C147.787 815.916 147.971 815.988 148.115 816.132C148.267 816.268 148.343 816.44 148.343 816.648C148.343 816.864 148.271 817.048 148.127 817.2C147.983 817.344 147.795 817.416 147.563 817.416ZM153.11 825.072C152.462 825.072 151.882 824.932 151.37 824.652C150.866 824.372 150.47 823.988 150.182 823.5C149.894 823.012 149.75 822.452 149.75 821.82C149.75 821.188 149.894 820.628 150.182 820.14C150.47 819.652 150.866 819.272 151.37 819C151.882 818.72 152.462 818.58 153.11 818.58C153.686 818.58 154.198 818.696 154.646 818.928C155.102 819.152 155.454 819.488 155.702 819.936L154.826 820.5C154.618 820.188 154.362 819.96 154.058 819.816C153.762 819.664 153.442 819.588 153.098 819.588C152.682 819.588 152.31 819.68 151.982 819.864C151.654 820.048 151.394 820.308 151.202 820.644C151.01 820.972 150.914 821.364 150.914 821.82C150.914 822.276 151.01 822.672 151.202 823.008C151.394 823.344 151.654 823.604 151.982 823.788C152.31 823.972 152.682 824.064 153.098 824.064C153.442 824.064 153.762 823.992 154.058 823.848C154.362 823.696 154.618 823.464 154.826 823.152L155.702 823.704C155.454 824.144 155.102 824.484 154.646 824.724C154.198 824.956 153.686 825.072 153.11 825.072ZM157.112 825V818.64H158.264V825H157.112ZM157.688 817.416C157.464 817.416 157.276 817.344 157.124 817.2C156.98 817.056 156.908 816.88 156.908 816.672C156.908 816.456 156.98 816.276 157.124 816.132C157.276 815.988 157.464 815.916 157.688 815.916C157.912 815.916 158.096 815.988 158.24 816.132C158.392 816.268 158.468 816.44 158.468 816.648C158.468 816.864 158.396 817.048 158.252 817.2C158.108 817.344 157.92 817.416 157.688 817.416ZM163.187 825.072C162.547 825.072 161.979 824.932 161.483 824.652C160.987 824.372 160.595 823.988 160.307 823.5C160.019 823.004 159.875 822.444 159.875 821.82C159.875 821.188 160.019 820.628 160.307 820.14C160.595 819.652 160.987 819.272 161.483 819C161.979 818.72 162.547 818.58 163.187 818.58C163.819 818.58 164.383 818.72 164.879 819C165.383 819.272 165.775 819.652 166.055 820.14C166.343 820.62 166.487 821.18 166.487 821.82C166.487 822.452 166.343 823.012 166.055 823.5C165.775 823.988 165.383 824.372 164.879 824.652C164.383 824.932 163.819 825.072 163.187 825.072ZM163.187 824.064C163.595 824.064 163.959 823.972 164.279 823.788C164.607 823.604 164.863 823.344 165.047 823.008C165.231 822.664 165.323 822.268 165.323 821.82C165.323 821.364 165.231 820.972 165.047 820.644C164.863 820.308 164.607 820.048 164.279 819.864C163.959 819.68 163.595 819.588 163.187 819.588C162.779 819.588 162.415 819.68 162.095 819.864C161.775 820.048 161.519 820.308 161.327 820.644C161.135 820.972 161.039 821.364 161.039 821.82C161.039 822.268 161.135 822.664 161.327 823.008C161.519 823.344 161.775 823.604 162.095 823.788C162.415 823.972 162.779 824.064 163.187 824.064Z" fill="#0066CC"/>
<path d="M209.656 825V816.6H212.932C213.668 816.6 214.296 816.716 214.816 816.948C215.336 817.18 215.736 817.516 216.016 817.956C216.296 818.396 216.436 818.92 216.436 819.528C216.436 820.136 216.296 820.66 216.016 821.1C215.736 821.532 215.336 821.868 214.816 822.108C214.296 822.34 213.668 822.456 212.932 822.456H210.316L210.856 821.892V825H209.656ZM210.856 822.012L210.316 821.412H212.896C213.664 821.412 214.244 821.248 214.636 820.92C215.036 820.592 215.236 820.128 215.236 819.528C215.236 818.928 215.036 818.464 214.636 818.136C214.244 817.808 213.664 817.644 212.896 817.644H210.316L210.856 817.044V822.012ZM220.84 825.072C220.16 825.072 219.56 824.932 219.04 824.652C218.528 824.372 218.128 823.988 217.84 823.5C217.56 823.012 217.42 822.452 217.42 821.82C217.42 821.188 217.556 820.628 217.828 820.14C218.108 819.652 218.488 819.272 218.968 819C219.456 818.72 220.004 818.58 220.612 818.58C221.228 818.58 221.772 818.716 222.244 818.988C222.716 819.26 223.084 819.644 223.348 820.14C223.62 820.628 223.756 821.2 223.756 821.856C223.756 821.904 223.752 821.96 223.744 822.024C223.744 822.088 223.74 822.148 223.732 822.204H218.32V821.376H223.132L222.664 821.664C222.672 821.256 222.588 820.892 222.412 820.572C222.236 820.252 221.992 820.004 221.68 819.828C221.376 819.644 221.02 819.552 220.612 819.552C220.212 819.552 219.856 819.644 219.544 819.828C219.232 820.004 218.988 820.256 218.812 820.584C218.636 820.904 218.548 821.272 218.548 821.688V821.88C218.548 822.304 218.644 822.684 218.836 823.02C219.036 823.348 219.312 823.604 219.664 823.788C220.016 823.972 220.42 824.064 220.876 824.064C221.252 824.064 221.592 824 221.896 823.872C222.208 823.744 222.48 823.552 222.712 823.296L223.348 824.04C223.06 824.376 222.7 824.632 222.268 824.808C221.844 824.984 221.368 825.072 220.84 825.072ZM227.984 825.072C227.368 825.072 226.816 824.936 226.328 824.664C225.848 824.392 225.468 824.012 225.188 823.524C224.908 823.036 224.768 822.468 224.768 821.82C224.768 821.172 224.908 820.608 225.188 820.128C225.468 819.64 225.848 819.26 226.328 818.988C226.816 818.716 227.368 818.58 227.984 818.58C228.52 818.58 229.004 818.7 229.436 818.94C229.868 819.18 230.212 819.54 230.468 820.02C230.732 820.5 230.864 821.1 230.864 821.82C230.864 822.54 230.736 823.14 230.48 823.62C230.232 824.1 229.892 824.464 229.46 824.712C229.028 824.952 228.536 825.072 227.984 825.072ZM228.08 824.064C228.48 824.064 228.84 823.972 229.16 823.788C229.488 823.604 229.744 823.344 229.928 823.008C230.12 822.664 230.216 822.268 230.216 821.82C230.216 821.364 230.12 820.972 229.928 820.644C229.744 820.308 229.488 820.048 229.16 819.864C228.84 819.68 228.48 819.588 228.08 819.588C227.672 819.588 227.308 819.68 226.988 819.864C226.668 820.048 226.412 820.308 226.22 820.644C226.028 820.972 225.932 821.364 225.932 821.82C225.932 822.268 226.028 822.664 226.22 823.008C226.412 823.344 226.668 823.604 226.988 823.788C227.308 823.972 227.672 824.064 228.08 824.064ZM230.252 825V823.284L230.324 821.808L230.204 820.332V816.096H231.356V825H230.252ZM233.535 825V818.64H234.687V825H233.535ZM234.111 817.416C233.887 817.416 233.699 817.344 233.547 817.2C233.403 817.056 233.331 816.88 233.331 816.672C233.331 816.456 233.403 816.276 233.547 816.132C233.699 815.988 233.887 815.916 234.111 815.916C234.335 815.916 234.519 815.988 234.663 816.132C234.815 816.268 234.891 816.44 234.891 816.648C234.891 816.864 234.819 817.048 234.675 817.2C234.531 817.344 234.343 817.416 234.111 817.416ZM239.515 825.072C238.899 825.072 238.347 824.936 237.859 824.664C237.379 824.392 236.999 824.012 236.719 823.524C236.439 823.036 236.299 822.468 236.299 821.82C236.299 821.172 236.439 820.608 236.719 820.128C236.999 819.64 237.379 819.26 237.859 818.988C238.347 818.716 238.899 818.58 239.515 818.58C240.051 818.58 240.535 818.7 240.967 818.94C241.399 819.18 241.743 819.54 241.999 820.02C242.263 820.5 242.395 821.1 242.395 821.82C242.395 822.54 242.267 823.14 242.011 823.62C241.763 824.1 241.423 824.464 240.991 824.712C240.559 824.952 240.067 825.072 239.515 825.072ZM239.611 824.064C240.011 824.064 240.371 823.972 240.691 823.788C241.019 823.604 241.275 823.344 241.459 823.008C241.651 822.664 241.747 822.268 241.747 821.82C241.747 821.364 241.651 820.972 241.459 820.644C241.275 820.308 241.019 820.048 240.691 819.864C240.371 819.68 240.011 819.588 239.611 819.588C239.203 819.588 238.839 819.68 238.519 819.864C238.199 820.048 237.943 820.308 237.751 820.644C237.559 820.972 237.463 821.364 237.463 821.82C237.463 822.268 237.559 822.664 237.751 823.008C237.943 823.344 238.199 823.604 238.519 823.788C238.839 823.972 239.203 824.064 239.611 824.064ZM241.783 825V823.284L241.855 821.808L241.735 820.332V816.096H242.887V825H241.783ZM247.791 825.072C247.151 825.072 246.583 824.932 246.087 824.652C245.591 824.372 245.199 823.988 244.911 823.5C244.623 823.004 244.479 822.444 244.479 821.82C244.479 821.188 244.623 820.628 244.911 820.14C245.199 819.652 245.591 819.272 246.087 819C246.583 818.72 247.151 818.58 247.791 818.58C248.423 818.58 248.987 818.72 249.483 819C249.987 819.272 250.379 819.652 250.659 820.14C250.947 820.62 251.091 821.18 251.091 821.82C251.091 822.452 250.947 823.012 250.659 823.5C250.379 823.988 249.987 824.372 249.483 824.652C248.987 824.932 248.423 825.072 247.791 825.072ZM247.791 824.064C248.199 824.064 248.563 823.972 248.883 823.788C249.211 823.604 249.467 823.344 249.651 823.008C249.835 822.664 249.927 822.268 249.927 821.82C249.927 821.364 249.835 820.972 249.651 820.644C249.467 820.308 249.211 820.048 248.883 819.864C248.563 819.68 248.199 819.588 247.791 819.588C247.383 819.588 247.019 819.68 246.699 819.864C246.379 820.048 246.123 820.308 245.931 820.644C245.739 820.972 245.643 821.364 245.643 821.82C245.643 822.268 245.739 822.664 245.931 823.008C246.123 823.344 246.379 823.604 246.699 823.788C247.019 823.972 247.383 824.064 247.791 824.064ZM254.508 825.072C253.98 825.072 253.476 825 252.996 824.856C252.524 824.712 252.152 824.536 251.88 824.328L252.36 823.416C252.632 823.6 252.968 823.756 253.368 823.884C253.768 824.012 254.176 824.076 254.592 824.076C255.128 824.076 255.512 824 255.744 823.848C255.984 823.696 256.104 823.484 256.104 823.212C256.104 823.012 256.032 822.856 255.888 822.744C255.744 822.632 255.552 822.548 255.312 822.492C255.08 822.436 254.82 822.388 254.532 822.348C254.244 822.3 253.956 822.244 253.668 822.18C253.38 822.108 253.116 822.012 252.876 821.892C252.636 821.764 252.444 821.592 252.3 821.376C252.156 821.152 252.084 820.856 252.084 820.488C252.084 820.104 252.192 819.768 252.408 819.48C252.624 819.192 252.928 818.972 253.32 818.82C253.72 818.66 254.192 818.58 254.736 818.58C255.152 818.58 255.572 818.632 255.996 818.736C256.428 818.832 256.78 818.972 257.052 819.156L256.56 820.068C256.272 819.876 255.972 819.744 255.66 819.672C255.348 819.6 255.036 819.564 254.724 819.564C254.22 819.564 253.844 819.648 253.596 819.816C253.348 819.976 253.224 820.184 253.224 820.44C253.224 820.656 253.296 820.824 253.44 820.944C253.592 821.056 253.784 821.144 254.016 821.208C254.256 821.272 254.52 821.328 254.808 821.376C255.096 821.416 255.384 821.472 255.672 821.544C255.96 821.608 256.22 821.7 256.452 821.82C256.692 821.94 256.884 822.108 257.028 822.324C257.18 822.54 257.256 822.828 257.256 823.188C257.256 823.572 257.144 823.904 256.92 824.184C256.696 824.464 256.38 824.684 255.972 824.844C255.564 824.996 255.076 825.072 254.508 825.072Z" fill="#1F1F1F"/>
<path d="M294.512 825.096C293.872 825.096 293.28 824.992 292.736 824.784C292.2 824.568 291.732 824.268 291.332 823.884C290.94 823.492 290.632 823.036 290.408 822.516C290.184 821.996 290.072 821.424 290.072 820.8C290.072 820.176 290.184 819.604 290.408 819.084C290.632 818.564 290.944 818.112 291.344 817.728C291.744 817.336 292.212 817.036 292.748 816.828C293.292 816.612 293.884 816.504 294.524 816.504C295.172 816.504 295.768 816.616 296.312 816.84C296.864 817.056 297.332 817.38 297.716 817.812L296.936 818.568C296.616 818.232 296.256 817.984 295.856 817.824C295.456 817.656 295.028 817.572 294.572 817.572C294.1 817.572 293.66 817.652 293.252 817.812C292.852 817.972 292.504 818.196 292.208 818.484C291.912 818.772 291.68 819.116 291.512 819.516C291.352 819.908 291.272 820.336 291.272 820.8C291.272 821.264 291.352 821.696 291.512 822.096C291.68 822.488 291.912 822.828 292.208 823.116C292.504 823.404 292.852 823.628 293.252 823.788C293.66 823.948 294.1 824.028 294.572 824.028C295.028 824.028 295.456 823.948 295.856 823.788C296.256 823.62 296.616 823.364 296.936 823.02L297.716 823.776C297.332 824.208 296.864 824.536 296.312 824.76C295.768 824.984 295.168 825.096 294.512 825.096ZM299.26 825V816.096H300.412V825H299.26ZM302.612 825V818.64H303.764V825H302.612ZM303.188 817.416C302.964 817.416 302.776 817.344 302.624 817.2C302.48 817.056 302.408 816.88 302.408 816.672C302.408 816.456 302.48 816.276 302.624 816.132C302.776 815.988 302.964 815.916 303.188 815.916C303.412 815.916 303.596 815.988 303.74 816.132C303.892 816.268 303.968 816.44 303.968 816.648C303.968 816.864 303.896 817.048 303.752 817.2C303.608 817.344 303.42 817.416 303.188 817.416ZM308.795 825.072C308.115 825.072 307.515 824.932 306.995 824.652C306.483 824.372 306.083 823.988 305.795 823.5C305.515 823.012 305.375 822.452 305.375 821.82C305.375 821.188 305.511 820.628 305.783 820.14C306.063 819.652 306.443 819.272 306.923 819C307.411 818.72 307.959 818.58 308.567 818.58C309.183 818.58 309.727 818.716 310.199 818.988C310.671 819.26 311.039 819.644 311.303 820.14C311.575 820.628 311.711 821.2 311.711 821.856C311.711 821.904 311.707 821.96 311.699 822.024C311.699 822.088 311.695 822.148 311.687 822.204H306.275V821.376H311.087L310.619 821.664C310.627 821.256 310.543 820.892 310.367 820.572C310.191 820.252 309.947 820.004 309.635 819.828C309.331 819.644 308.975 819.552 308.567 819.552C308.167 819.552 307.811 819.644 307.499 819.828C307.187 820.004 306.943 820.256 306.767 820.584C306.591 820.904 306.503 821.272 306.503 821.688V821.88C306.503 822.304 306.599 822.684 306.791 823.02C306.991 823.348 307.267 823.604 307.619 823.788C307.971 823.972 308.375 824.064 308.831 824.064C309.207 824.064 309.547 824 309.851 823.872C310.163 823.744 310.435 823.552 310.667 823.296L311.303 824.04C311.015 824.376 310.655 824.632 310.223 824.808C309.799 824.984 309.323 825.072 308.795 825.072ZM316.707 818.58C317.227 818.58 317.683 818.68 318.075 818.88C318.475 819.08 318.787 819.384 319.011 819.792C319.235 820.2 319.347 820.716 319.347 821.34V825H318.195V821.472C318.195 820.856 318.043 820.392 317.739 820.08C317.443 819.768 317.023 819.612 316.479 819.612C316.071 819.612 315.715 819.692 315.411 819.852C315.107 820.012 314.871 820.248 314.703 820.56C314.543 820.872 314.463 821.26 314.463 821.724V825H313.311V818.64H314.415V820.356L314.235 819.9C314.443 819.484 314.763 819.16 315.195 818.928C315.627 818.696 316.131 818.58 316.707 818.58ZM323.663 825.072C323.023 825.072 322.527 824.9 322.175 824.556C321.823 824.212 321.647 823.72 321.647 823.08V817.248H322.799V823.032C322.799 823.376 322.883 823.64 323.051 823.824C323.227 824.008 323.475 824.1 323.795 824.1C324.155 824.1 324.455 824 324.695 823.8L325.055 824.628C324.879 824.78 324.667 824.892 324.419 824.964C324.179 825.036 323.927 825.072 323.663 825.072ZM320.567 819.588V818.64H324.623V819.588H320.567ZM329.069 825.072C328.389 825.072 327.789 824.932 327.269 824.652C326.757 824.372 326.357 823.988 326.069 823.5C325.789 823.012 325.649 822.452 325.649 821.82C325.649 821.188 325.785 820.628 326.057 820.14C326.337 819.652 326.717 819.272 327.197 819C327.685 818.72 328.233 818.58 328.841 818.58C329.457 818.58 330.001 818.716 330.473 818.988C330.945 819.26 331.313 819.644 331.577 820.14C331.849 820.628 331.985 821.2 331.985 821.856C331.985 821.904 331.981 821.96 331.973 822.024C331.973 822.088 331.969 822.148 331.961 822.204H326.549V821.376H331.361L330.893 821.664C330.901 821.256 330.817 820.892 330.641 820.572C330.465 820.252 330.221 820.004 329.909 819.828C329.605 819.644 329.249 819.552 328.841 819.552C328.441 819.552 328.085 819.644 327.773 819.828C327.461 820.004 327.217 820.256 327.041 820.584C326.865 820.904 326.777 821.272 326.777 821.688V821.88C326.777 822.304 326.873 822.684 327.065 823.02C327.265 823.348 327.541 823.604 327.893 823.788C328.245 823.972 328.649 824.064 329.105 824.064C329.481 824.064 329.821 824 330.125 823.872C330.437 823.744 330.709 823.552 330.941 823.296L331.577 824.04C331.289 824.376 330.929 824.632 330.497 824.808C330.073 824.984 329.597 825.072 329.069 825.072ZM335.408 825.072C334.88 825.072 334.376 825 333.896 824.856C333.424 824.712 333.052 824.536 332.78 824.328L333.26 823.416C333.532 823.6 333.868 823.756 334.268 823.884C334.668 824.012 335.076 824.076 335.492 824.076C336.028 824.076 336.412 824 336.644 823.848C336.884 823.696 337.004 823.484 337.004 823.212C337.004 823.012 336.932 822.856 336.788 822.744C336.644 822.632 336.452 822.548 336.212 822.492C335.98 822.436 335.72 822.388 335.432 822.348C335.144 822.3 334.856 822.244 334.568 822.18C334.28 822.108 334.016 822.012 333.776 821.892C333.536 821.764 333.344 821.592 333.2 821.376C333.056 821.152 332.984 820.856 332.984 820.488C332.984 820.104 333.092 819.768 333.308 819.48C333.524 819.192 333.828 818.972 334.22 818.82C334.62 818.66 335.092 818.58 335.636 818.58C336.052 818.58 336.472 818.632 336.896 818.736C337.328 818.832 337.68 818.972 337.952 819.156L337.46 820.068C337.172 819.876 336.872 819.744 336.56 819.672C336.248 819.6 335.936 819.564 335.624 819.564C335.12 819.564 334.744 819.648 334.496 819.816C334.248 819.976 334.124 820.184 334.124 820.44C334.124 820.656 334.196 820.824 334.34 820.944C334.492 821.056 334.684 821.144 334.916 821.208C335.156 821.272 335.42 821.328 335.708 821.376C335.996 821.416 336.284 821.472 336.572 821.544C336.86 821.608 337.12 821.7 337.352 821.82C337.592 821.94 337.784 822.108 337.928 822.324C338.08 822.54 338.156 822.828 338.156 823.188C338.156 823.572 338.044 823.904 337.82 824.184C337.596 824.464 337.28 824.684 336.872 824.844C336.464 824.996 335.976 825.072 335.408 825.072Z" fill="#1F1F1F"/>
<path d="M70.972 404.432C69.22 404.432 67.48 404.204 65.752 403.748C64.048 403.268 62.584 402.596 61.36 401.732L63.664 397.268C64.624 397.964 65.728 398.516 66.976 398.924C68.248 399.332 69.532 399.536 70.828 399.536C72.292 399.536 73.444 399.248 74.284 398.672C75.124 398.096 75.544 397.292 75.544 396.26C75.544 395.612 75.376 395.036 75.04 394.532C74.704 394.028 74.104 393.644 73.24 393.38C72.4 393.116 71.212 392.984 69.676 392.984H63.232L64.528 378.8H79.9V383.48H66.616L69.64 380.816L68.74 390.932L65.716 388.268H71.044C73.54 388.268 75.544 388.616 77.056 389.312C78.592 389.984 79.708 390.908 80.404 392.084C81.1 393.26 81.448 394.592 81.448 396.08C81.448 397.568 81.076 398.948 80.332 400.22C79.588 401.468 78.436 402.488 76.876 403.28C75.34 404.048 73.372 404.432 70.972 404.432ZM95.0822 404.432C92.7782 404.432 90.7742 403.952 89.0702 402.992C87.3902 402.032 86.0942 400.628 85.1822 398.78C84.2702 396.932 83.8142 394.652 83.8142 391.94C83.8142 389.036 84.3542 386.576 85.4342 384.56C86.5382 382.544 88.0502 381.008 89.9702 379.952C91.9142 378.896 94.1462 378.368 96.6662 378.368C98.0102 378.368 99.2942 378.512 100.518 378.8C101.742 379.088 102.798 379.52 103.686 380.096L101.526 384.38C100.83 383.9 100.086 383.576 99.2942 383.408C98.5022 383.216 97.6742 383.12 96.8102 383.12C94.6262 383.12 92.8982 383.78 91.6262 385.1C90.3542 386.42 89.7182 388.376 89.7182 390.968C89.7182 391.4 89.7182 391.88 89.7182 392.408C89.7422 392.936 89.8142 393.464 89.9342 393.992L88.3142 392.48C88.7702 391.544 89.3582 390.764 90.0782 390.14C90.7982 389.492 91.6502 389.012 92.6342 388.7C93.6422 388.364 94.7462 388.196 95.9462 388.196C97.5782 388.196 99.0422 388.52 100.338 389.168C101.634 389.816 102.666 390.728 103.434 391.904C104.226 393.08 104.622 394.46 104.622 396.044C104.622 397.748 104.19 399.236 103.326 400.508C102.486 401.756 101.346 402.728 99.9062 403.424C98.4902 404.096 96.8822 404.432 95.0822 404.432ZM94.7582 400.076C95.5742 400.076 96.2942 399.932 96.9182 399.644C97.5662 399.332 98.0702 398.888 98.4302 398.312C98.7902 397.736 98.9702 397.076 98.9702 396.332C98.9702 395.18 98.5742 394.268 97.7822 393.596C97.0142 392.9 95.9822 392.552 94.6862 392.552C93.8222 392.552 93.0662 392.72 92.4182 393.056C91.7702 393.368 91.2542 393.812 90.8702 394.388C90.5102 394.94 90.3302 395.588 90.3302 396.332C90.3302 397.052 90.5102 397.7 90.8702 398.276C91.2302 398.828 91.7342 399.272 92.3822 399.608C93.0302 399.92 93.8222 400.076 94.7582 400.076Z" fill="white"/>
<path d="M135.8 404.16C134.893 404.16 134.1 403.96 133.42 403.56C132.74 403.16 132.207 402.553 131.82 401.74C131.447 400.913 131.26 399.873 131.26 398.62C131.26 397.353 131.44 396.313 131.8 395.5C132.16 394.687 132.68 394.08 133.36 393.68C134.04 393.28 134.853 393.08 135.8 393.08C136.813 393.08 137.72 393.313 138.52 393.78C139.333 394.233 139.973 394.873 140.44 395.7C140.92 396.527 141.16 397.5 141.16 398.62C141.16 399.753 140.92 400.733 140.44 401.56C139.973 402.387 139.333 403.027 138.52 403.48C137.72 403.933 136.813 404.16 135.8 404.16ZM129.44 407.88V393.24H132.42V395.44L132.36 398.64L132.56 401.82V407.88H129.44ZM135.26 401.6C135.78 401.6 136.24 401.48 136.64 401.24C137.053 401 137.38 400.66 137.62 400.22C137.873 399.767 138 399.233 138 398.62C138 397.993 137.873 397.46 137.62 397.02C137.38 396.58 137.053 396.24 136.64 396C136.24 395.76 135.78 395.64 135.26 395.64C134.74 395.64 134.273 395.76 133.86 396C133.447 396.24 133.12 396.58 132.88 397.02C132.64 397.46 132.52 397.993 132.52 398.62C132.52 399.233 132.64 399.767 132.88 400.22C133.12 400.66 133.447 401 133.86 401.24C134.273 401.48 134.74 401.6 135.26 401.6ZM148.589 404.16C147.362 404.16 146.282 403.92 145.349 403.44C144.429 402.96 143.715 402.307 143.209 401.48C142.702 400.64 142.449 399.687 142.449 398.62C142.449 397.54 142.695 396.587 143.189 395.76C143.695 394.92 144.382 394.267 145.249 393.8C146.115 393.32 147.095 393.08 148.189 393.08C149.242 393.08 150.189 393.307 151.029 393.76C151.882 394.2 152.555 394.84 153.049 395.68C153.542 396.507 153.789 397.5 153.789 398.66C153.789 398.78 153.782 398.92 153.769 399.08C153.755 399.227 153.742 399.367 153.729 399.5H144.989V397.68H152.089L150.889 398.22C150.889 397.66 150.775 397.173 150.549 396.76C150.322 396.347 150.009 396.027 149.609 395.8C149.209 395.56 148.742 395.44 148.209 395.44C147.675 395.44 147.202 395.56 146.789 395.8C146.389 396.027 146.075 396.353 145.849 396.78C145.622 397.193 145.509 397.687 145.509 398.26V398.74C145.509 399.327 145.635 399.847 145.889 400.3C146.155 400.74 146.522 401.08 146.989 401.32C147.469 401.547 148.029 401.66 148.669 401.66C149.242 401.66 149.742 401.573 150.169 401.4C150.609 401.227 151.009 400.967 151.369 400.62L153.029 402.42C152.535 402.98 151.915 403.413 151.169 403.72C150.422 404.013 149.562 404.16 148.589 404.16ZM160.486 404.16C159.472 404.16 158.559 403.933 157.746 403.48C156.932 403.013 156.286 402.367 155.806 401.54C155.339 400.713 155.106 399.74 155.106 398.62C155.106 397.487 155.339 396.507 155.806 395.68C156.286 394.853 156.932 394.213 157.746 393.76C158.559 393.307 159.472 393.08 160.486 393.08C161.392 393.08 162.186 393.28 162.866 393.68C163.546 394.08 164.072 394.687 164.446 395.5C164.819 396.313 165.006 397.353 165.006 398.62C165.006 399.873 164.826 400.913 164.466 401.74C164.106 402.553 163.586 403.16 162.906 403.56C162.239 403.96 161.432 404.16 160.486 404.16ZM161.026 401.6C161.532 401.6 161.992 401.48 162.406 401.24C162.819 401 163.146 400.66 163.386 400.22C163.639 399.767 163.766 399.233 163.766 398.62C163.766 397.993 163.639 397.46 163.386 397.02C163.146 396.58 162.819 396.24 162.406 396C161.992 395.76 161.532 395.64 161.026 395.64C160.506 395.64 160.039 395.76 159.626 396C159.212 396.24 158.879 396.58 158.626 397.02C158.386 397.46 158.266 397.993 158.266 398.62C158.266 399.233 158.386 399.767 158.626 400.22C158.879 400.66 159.212 401 159.626 401.24C160.039 401.48 160.506 401.6 161.026 401.6ZM163.846 404V401.8L163.906 398.6L163.706 395.42V389.16H166.826V404H163.846ZM169.713 404V393.24H172.833V404H169.713ZM171.273 391.74C170.7 391.74 170.233 391.573 169.873 391.24C169.513 390.907 169.333 390.493 169.333 390C169.333 389.507 169.513 389.093 169.873 388.76C170.233 388.427 170.7 388.26 171.273 388.26C171.847 388.26 172.313 388.42 172.673 388.74C173.033 389.047 173.213 389.447 173.213 389.94C173.213 390.46 173.033 390.893 172.673 391.24C172.327 391.573 171.86 391.74 171.273 391.74ZM180.349 404.16C179.336 404.16 178.422 403.933 177.609 403.48C176.796 403.013 176.149 402.367 175.669 401.54C175.202 400.713 174.969 399.74 174.969 398.62C174.969 397.487 175.202 396.507 175.669 395.68C176.149 394.853 176.796 394.213 177.609 393.76C178.422 393.307 179.336 393.08 180.349 393.08C181.256 393.08 182.049 393.28 182.729 393.68C183.409 394.08 183.936 394.687 184.309 395.5C184.682 396.313 184.869 397.353 184.869 398.62C184.869 399.873 184.689 400.913 184.329 401.74C183.969 402.553 183.449 403.16 182.769 403.56C182.102 403.96 181.296 404.16 180.349 404.16ZM180.889 401.6C181.396 401.6 181.856 401.48 182.269 401.24C182.682 401 183.009 400.66 183.249 400.22C183.502 399.767 183.629 399.233 183.629 398.62C183.629 397.993 183.502 397.46 183.249 397.02C183.009 396.58 182.682 396.24 182.269 396C181.856 395.76 181.396 395.64 180.889 395.64C180.369 395.64 179.902 395.76 179.489 396C179.076 396.24 178.742 396.58 178.489 397.02C178.249 397.46 178.129 397.993 178.129 398.62C178.129 399.233 178.249 399.767 178.489 400.22C178.742 400.66 179.076 401 179.489 401.24C179.902 401.48 180.369 401.6 180.889 401.6ZM183.709 404V401.8L183.769 398.6L183.569 395.42V389.16H186.689V404H183.709ZM194.697 404.16C193.55 404.16 192.53 403.92 191.637 403.44C190.757 402.96 190.057 402.307 189.537 401.48C189.03 400.64 188.777 399.687 188.777 398.62C188.777 397.54 189.03 396.587 189.537 395.76C190.057 394.92 190.757 394.267 191.637 393.8C192.53 393.32 193.55 393.08 194.697 393.08C195.83 393.08 196.843 393.32 197.737 393.8C198.63 394.267 199.33 394.913 199.837 395.74C200.343 396.567 200.597 397.527 200.597 398.62C200.597 399.687 200.343 400.64 199.837 401.48C199.33 402.307 198.63 402.96 197.737 403.44C196.843 403.92 195.83 404.16 194.697 404.16ZM194.697 401.6C195.217 401.6 195.683 401.48 196.097 401.24C196.51 401 196.837 400.66 197.077 400.22C197.317 399.767 197.437 399.233 197.437 398.62C197.437 397.993 197.317 397.46 197.077 397.02C196.837 396.58 196.51 396.24 196.097 396C195.683 395.76 195.217 395.64 194.697 395.64C194.177 395.64 193.71 395.76 193.297 396C192.883 396.24 192.55 396.58 192.297 397.02C192.057 397.46 191.937 397.993 191.937 398.62C191.937 399.233 192.057 399.767 192.297 400.22C192.55 400.66 192.883 401 193.297 401.24C193.71 401.48 194.177 401.6 194.697 401.6ZM206.302 404.16C205.382 404.16 204.496 404.053 203.642 403.84C202.802 403.613 202.136 403.333 201.642 403L202.682 400.76C203.176 401.067 203.756 401.32 204.422 401.52C205.102 401.707 205.769 401.8 206.422 401.8C207.142 401.8 207.649 401.713 207.942 401.54C208.249 401.367 208.402 401.127 208.402 400.82C208.402 400.567 208.282 400.38 208.042 400.26C207.816 400.127 207.509 400.027 207.122 399.96C206.736 399.893 206.309 399.827 205.842 399.76C205.389 399.693 204.929 399.607 204.462 399.5C203.996 399.38 203.569 399.207 203.182 398.98C202.796 398.753 202.482 398.447 202.242 398.06C202.016 397.673 201.902 397.173 201.902 396.56C201.902 395.88 202.096 395.28 202.482 394.76C202.882 394.24 203.456 393.833 204.202 393.54C204.949 393.233 205.842 393.08 206.882 393.08C207.616 393.08 208.362 393.16 209.122 393.32C209.882 393.48 210.516 393.713 211.022 394.02L209.982 396.24C209.462 395.933 208.936 395.727 208.402 395.62C207.882 395.5 207.376 395.44 206.882 395.44C206.189 395.44 205.682 395.533 205.362 395.72C205.042 395.907 204.882 396.147 204.882 396.44C204.882 396.707 204.996 396.907 205.222 397.04C205.462 397.173 205.776 397.28 206.162 397.36C206.549 397.44 206.969 397.513 207.422 397.58C207.889 397.633 208.356 397.72 208.822 397.84C209.289 397.96 209.709 398.133 210.082 398.36C210.469 398.573 210.782 398.873 211.022 399.26C211.262 399.633 211.382 400.127 211.382 400.74C211.382 401.407 211.182 402 210.782 402.52C210.382 403.027 209.802 403.427 209.042 403.72C208.296 404.013 207.382 404.16 206.302 404.16ZM219.082 404V393.5H220.442V396.36L220.302 395.86C220.595 395.06 221.088 394.453 221.782 394.04C222.475 393.613 223.335 393.4 224.362 393.4V394.78C224.308 394.78 224.255 394.78 224.202 394.78C224.148 394.767 224.095 394.76 224.042 394.76C222.935 394.76 222.068 395.1 221.442 395.78C220.815 396.447 220.502 397.4 220.502 398.64V404H219.082ZM231.315 404.1C230.222 404.1 229.262 403.873 228.435 403.42C227.608 402.953 226.962 402.32 226.495 401.52C226.028 400.707 225.795 399.78 225.795 398.74C225.795 397.7 226.015 396.78 226.455 395.98C226.908 395.18 227.522 394.553 228.295 394.1C229.082 393.633 229.962 393.4 230.935 393.4C231.922 393.4 232.795 393.627 233.555 394.08C234.328 394.52 234.935 395.147 235.375 395.96C235.815 396.76 236.035 397.687 236.035 398.74C236.035 398.807 236.028 398.88 236.015 398.96C236.015 399.027 236.015 399.1 236.015 399.18H226.875V398.12H235.255L234.695 398.54C234.695 397.78 234.528 397.107 234.195 396.52C233.875 395.92 233.435 395.453 232.875 395.12C232.315 394.787 231.668 394.62 230.935 394.62C230.215 394.62 229.568 394.787 228.995 395.12C228.422 395.453 227.975 395.92 227.655 396.52C227.335 397.12 227.175 397.807 227.175 398.58V398.8C227.175 399.6 227.348 400.307 227.695 400.92C228.055 401.52 228.548 401.993 229.175 402.34C229.815 402.673 230.542 402.84 231.355 402.84C231.995 402.84 232.588 402.727 233.135 402.5C233.695 402.273 234.175 401.927 234.575 401.46L235.375 402.38C234.908 402.94 234.322 403.367 233.615 403.66C232.922 403.953 232.155 404.1 231.315 404.1ZM243.405 407.98C242.445 407.98 241.525 407.84 240.645 407.56C239.765 407.28 239.052 406.88 238.505 406.36L239.225 405.28C239.719 405.72 240.325 406.067 241.045 406.32C241.779 406.587 242.552 406.72 243.365 406.72C244.699 406.72 245.679 406.407 246.305 405.78C246.932 405.167 247.245 404.207 247.245 402.9V400.28L247.445 398.48L247.305 396.68V393.5H248.665V402.72C248.665 404.533 248.219 405.86 247.325 406.7C246.445 407.553 245.139 407.98 243.405 407.98ZM243.145 403.6C242.145 403.6 241.245 403.387 240.445 402.96C239.645 402.52 239.012 401.913 238.545 401.14C238.092 400.367 237.865 399.48 237.865 398.48C237.865 397.48 238.092 396.6 238.545 395.84C239.012 395.067 239.645 394.467 240.445 394.04C241.245 393.613 242.145 393.4 243.145 393.4C244.079 393.4 244.919 393.593 245.665 393.98C246.412 394.367 247.005 394.94 247.445 395.7C247.885 396.46 248.105 397.387 248.105 398.48C248.105 399.573 247.885 400.5 247.445 401.26C247.005 402.02 246.412 402.6 245.665 403C244.919 403.4 244.079 403.6 243.145 403.6ZM243.285 402.34C244.059 402.34 244.745 402.18 245.345 401.86C245.945 401.527 246.419 401.073 246.765 400.5C247.112 399.913 247.285 399.24 247.285 398.48C247.285 397.72 247.112 397.053 246.765 396.48C246.419 395.907 245.945 395.46 245.345 395.14C244.745 394.807 244.059 394.64 243.285 394.64C242.525 394.64 241.839 394.807 241.225 395.14C240.625 395.46 240.152 395.907 239.805 396.48C239.472 397.053 239.305 397.72 239.305 398.48C239.305 399.24 239.472 399.913 239.805 400.5C240.152 401.073 240.625 401.527 241.225 401.86C241.839 402.18 242.525 402.34 243.285 402.34ZM252.617 404V393.5H254.037V404H252.617ZM253.337 391.18C253.043 391.18 252.797 391.08 252.597 390.88C252.397 390.68 252.297 390.44 252.297 390.16C252.297 389.88 252.397 389.647 252.597 389.46C252.797 389.26 253.043 389.16 253.337 389.16C253.63 389.16 253.877 389.253 254.077 389.44C254.277 389.627 254.377 389.86 254.377 390.14C254.377 390.433 254.277 390.68 254.077 390.88C253.89 391.08 253.643 391.18 253.337 391.18ZM260.808 404.1C259.941 404.1 259.121 403.98 258.348 403.74C257.574 403.487 256.968 403.173 256.528 402.8L257.168 401.68C257.594 402 258.141 402.28 258.808 402.52C259.474 402.747 260.174 402.86 260.908 402.86C261.908 402.86 262.628 402.707 263.068 402.4C263.508 402.08 263.728 401.66 263.728 401.14C263.728 400.753 263.601 400.453 263.348 400.24C263.108 400.013 262.788 399.847 262.388 399.74C261.988 399.62 261.541 399.52 261.048 399.44C260.554 399.36 260.061 399.267 259.568 399.16C259.088 399.053 258.648 398.9 258.248 398.7C257.848 398.487 257.521 398.2 257.268 397.84C257.028 397.48 256.908 397 256.908 396.4C256.908 395.827 257.068 395.313 257.388 394.86C257.708 394.407 258.174 394.053 258.788 393.8C259.414 393.533 260.174 393.4 261.068 393.4C261.748 393.4 262.428 393.493 263.108 393.68C263.788 393.853 264.348 394.087 264.788 394.38L264.168 395.52C263.701 395.2 263.201 394.973 262.668 394.84C262.134 394.693 261.601 394.62 261.068 394.62C260.121 394.62 259.421 394.787 258.968 395.12C258.528 395.44 258.308 395.853 258.308 396.36C258.308 396.76 258.428 397.073 258.668 397.3C258.921 397.527 259.248 397.707 259.648 397.84C260.061 397.96 260.508 398.06 260.988 398.14C261.481 398.22 261.968 398.32 262.448 398.44C262.941 398.547 263.388 398.7 263.788 398.9C264.201 399.087 264.528 399.36 264.768 399.72C265.021 400.067 265.148 400.527 265.148 401.1C265.148 401.713 264.974 402.247 264.628 402.7C264.294 403.14 263.801 403.487 263.148 403.74C262.508 403.98 261.728 404.1 260.808 404.1ZM271.073 404.1C270.087 404.1 269.327 403.833 268.793 403.3C268.26 402.767 267.993 402.013 267.993 401.04V391.18H269.413V400.96C269.413 401.573 269.567 402.047 269.873 402.38C270.193 402.713 270.647 402.88 271.233 402.88C271.86 402.88 272.38 402.7 272.793 402.34L273.293 403.36C273.013 403.613 272.673 403.8 272.273 403.92C271.887 404.04 271.487 404.1 271.073 404.1ZM266.113 394.68V393.5H272.613V394.68H266.113ZM275.878 404V393.5H277.238V396.36L277.098 395.86C277.392 395.06 277.885 394.453 278.578 394.04C279.272 393.613 280.132 393.4 281.158 393.4V394.78C281.105 394.78 281.052 394.78 280.998 394.78C280.945 394.767 280.892 394.76 280.838 394.76C279.732 394.76 278.865 395.1 278.238 395.78C277.612 396.447 277.298 397.4 277.298 398.64V404H275.878ZM289.548 404V401.68L289.488 401.3V397.42C289.488 396.527 289.235 395.84 288.728 395.36C288.235 394.88 287.495 394.64 286.508 394.64C285.828 394.64 285.182 394.753 284.568 394.98C283.955 395.207 283.435 395.507 283.008 395.88L282.368 394.82C282.902 394.367 283.542 394.02 284.288 393.78C285.035 393.527 285.822 393.4 286.648 393.4C288.008 393.4 289.055 393.74 289.788 394.42C290.535 395.087 290.908 396.107 290.908 397.48V404H289.548ZM285.928 404.1C285.142 404.1 284.455 403.973 283.868 403.72C283.295 403.453 282.855 403.093 282.548 402.64C282.242 402.173 282.088 401.64 282.088 401.04C282.088 400.493 282.215 400 282.468 399.56C282.735 399.107 283.162 398.747 283.748 398.48C284.348 398.2 285.148 398.06 286.148 398.06H289.768V399.12H286.188C285.175 399.12 284.468 399.3 284.068 399.66C283.682 400.02 283.488 400.467 283.488 401C283.488 401.6 283.722 402.08 284.188 402.44C284.655 402.8 285.308 402.98 286.148 402.98C286.948 402.98 287.635 402.8 288.208 402.44C288.795 402.067 289.222 401.533 289.488 400.84L289.808 401.82C289.542 402.513 289.075 403.067 288.408 403.48C287.755 403.893 286.928 404.1 285.928 404.1ZM298.945 404.1C297.945 404.1 297.045 403.873 296.245 403.42C295.458 402.967 294.838 402.34 294.385 401.54C293.932 400.727 293.705 399.793 293.705 398.74C293.705 397.673 293.932 396.74 294.385 395.94C294.838 395.14 295.458 394.52 296.245 394.08C297.045 393.627 297.945 393.4 298.945 393.4C299.865 393.4 300.685 393.607 301.405 394.02C302.138 394.433 302.718 395.04 303.145 395.84C303.585 396.627 303.805 397.593 303.805 398.74C303.805 399.873 303.592 400.84 303.165 401.64C302.738 402.44 302.158 403.053 301.425 403.48C300.705 403.893 299.878 404.1 298.945 404.1ZM299.045 402.84C299.792 402.84 300.458 402.673 301.045 402.34C301.645 401.993 302.112 401.513 302.445 400.9C302.792 400.273 302.965 399.553 302.965 398.74C302.965 397.913 302.792 397.193 302.445 396.58C302.112 395.967 301.645 395.493 301.045 395.16C300.458 394.813 299.792 394.64 299.045 394.64C298.312 394.64 297.652 394.813 297.065 395.16C296.478 395.493 296.012 395.967 295.665 396.58C295.318 397.193 295.145 397.913 295.145 398.74C295.145 399.553 295.318 400.273 295.665 400.9C296.012 401.513 296.478 401.993 297.065 402.34C297.652 402.673 298.312 402.84 299.045 402.84ZM303.005 404V400.84L303.145 398.72L302.945 396.6V389.16H304.365V404H303.005ZM312.6 404.1C311.587 404.1 310.673 403.873 309.86 403.42C309.06 402.953 308.427 402.32 307.96 401.52C307.493 400.707 307.26 399.78 307.26 398.74C307.26 397.687 307.493 396.76 307.96 395.96C308.427 395.16 309.06 394.533 309.86 394.08C310.66 393.627 311.573 393.4 312.6 393.4C313.64 393.4 314.56 393.627 315.36 394.08C316.173 394.533 316.807 395.16 317.26 395.96C317.727 396.76 317.96 397.687 317.96 398.74C317.96 399.78 317.727 400.707 317.26 401.52C316.807 402.32 316.173 402.953 315.36 403.42C314.547 403.873 313.627 404.1 312.6 404.1ZM312.6 402.84C313.36 402.84 314.033 402.673 314.62 402.34C315.207 401.993 315.667 401.513 316 400.9C316.347 400.273 316.52 399.553 316.52 398.74C316.52 397.913 316.347 397.193 316 396.58C315.667 395.967 315.207 395.493 314.62 395.16C314.033 394.813 313.367 394.64 312.62 394.64C311.873 394.64 311.207 394.813 310.62 395.16C310.033 395.493 309.567 395.967 309.22 396.58C308.873 397.193 308.7 397.913 308.7 398.74C308.7 399.553 308.873 400.273 309.22 400.9C309.567 401.513 310.033 401.993 310.62 402.34C311.207 402.673 311.867 402.84 312.6 402.84ZM323.679 404.1C322.812 404.1 321.992 403.98 321.219 403.74C320.446 403.487 319.839 403.173 319.399 402.8L320.039 401.68C320.466 402 321.012 402.28 321.679 402.52C322.346 402.747 323.046 402.86 323.779 402.86C324.779 402.86 325.499 402.707 325.939 402.4C326.379 402.08 326.599 401.66 326.599 401.14C326.599 400.753 326.472 400.453 326.219 400.24C325.979 400.013 325.659 399.847 325.259 399.74C324.859 399.62 324.412 399.52 323.919 399.44C323.426 399.36 322.932 399.267 322.439 399.16C321.959 399.053 321.519 398.9 321.119 398.7C320.719 398.487 320.392 398.2 320.139 397.84C319.899 397.48 319.779 397 319.779 396.4C319.779 395.827 319.939 395.313 320.259 394.86C320.579 394.407 321.046 394.053 321.659 393.8C322.286 393.533 323.046 393.4 323.939 393.4C324.619 393.4 325.299 393.493 325.979 393.68C326.659 393.853 327.219 394.087 327.659 394.38L327.039 395.52C326.572 395.2 326.072 394.973 325.539 394.84C325.006 394.693 324.472 394.62 323.939 394.62C322.992 394.62 322.292 394.787 321.839 395.12C321.399 395.44 321.179 395.853 321.179 396.36C321.179 396.76 321.299 397.073 321.539 397.3C321.792 397.527 322.119 397.707 322.519 397.84C322.932 397.96 323.379 398.06 323.859 398.14C324.352 398.22 324.839 398.32 325.319 398.44C325.812 398.547 326.259 398.7 326.659 398.9C327.072 399.087 327.399 399.36 327.639 399.72C327.892 400.067 328.019 400.527 328.019 401.1C328.019 401.713 327.846 402.247 327.499 402.7C327.166 403.14 326.672 403.487 326.019 403.74C325.379 403.98 324.599 404.1 323.679 404.1Z" fill="white"/>
<path d="M94.26 460.368C96.588 460.368 98.592 460.848 100.272 461.808C101.952 462.768 103.248 464.172 104.16 466.02C105.072 467.844 105.528 470.124 105.528 472.86C105.528 475.764 104.976 478.224 103.872 480.24C102.792 482.256 101.292 483.792 99.372 484.848C97.452 485.904 95.22 486.432 92.676 486.432C91.356 486.432 90.084 486.288 88.86 486C87.636 485.712 86.58 485.28 85.692 484.704L87.852 480.42C88.548 480.9 89.292 481.236 90.084 481.428C90.876 481.596 91.704 481.68 92.568 481.68C94.728 481.68 96.444 481.02 97.716 479.7C99.012 478.38 99.66 476.424 99.66 473.832C99.66 473.4 99.648 472.92 99.624 472.392C99.6 471.864 99.54 471.336 99.444 470.808L101.028 472.32C100.62 473.256 100.044 474.048 99.3 474.696C98.556 475.32 97.692 475.8 96.708 476.136C95.724 476.448 94.62 476.604 93.396 476.604C91.788 476.604 90.324 476.28 89.004 475.632C87.708 474.984 86.664 474.072 85.872 472.896C85.104 471.72 84.72 470.34 84.72 468.756C84.72 467.028 85.14 465.54 85.98 464.292C86.844 463.044 87.996 462.084 89.436 461.412C90.9 460.716 92.508 460.368 94.26 460.368ZM94.62 464.724C93.78 464.724 93.048 464.88 92.424 465.192C91.8 465.48 91.308 465.912 90.948 466.488C90.588 467.04 90.408 467.7 90.408 468.468C90.408 469.62 90.792 470.544 91.56 471.24C92.352 471.912 93.396 472.248 94.692 472.248C95.532 472.248 96.276 472.092 96.924 471.78C97.596 471.444 98.112 470.988 98.472 470.412C98.832 469.836 99.012 469.188 99.012 468.468C99.012 467.748 98.832 467.112 98.472 466.56C98.136 465.984 97.644 465.54 96.996 465.228C96.348 464.892 95.556 464.724 94.62 464.724Z" fill="white"/>
<path d="M134.64 486.16C133.48 486.16 132.447 485.927 131.54 485.46C130.633 484.98 129.92 484.32 129.4 483.48C128.893 482.64 128.64 481.687 128.64 480.62C128.64 479.54 128.893 478.587 129.4 477.76C129.92 476.92 130.633 476.267 131.54 475.8C132.447 475.32 133.48 475.08 134.64 475.08C135.773 475.08 136.76 475.32 137.6 475.8C138.44 476.267 139.06 476.94 139.46 477.82L137.04 479.12C136.76 478.613 136.407 478.24 135.98 478C135.567 477.76 135.113 477.64 134.62 477.64C134.087 477.64 133.607 477.76 133.18 478C132.753 478.24 132.413 478.58 132.16 479.02C131.92 479.46 131.8 479.993 131.8 480.62C131.8 481.247 131.92 481.78 132.16 482.22C132.413 482.66 132.753 483 133.18 483.24C133.607 483.48 134.087 483.6 134.62 483.6C135.113 483.6 135.567 483.487 135.98 483.26C136.407 483.02 136.76 482.64 137.04 482.12L139.46 483.44C139.06 484.307 138.44 484.98 137.6 485.46C136.76 485.927 135.773 486.16 134.64 486.16ZM141.198 486V471.16H144.318V486H141.198ZM147.213 486V475.24H150.333V486H147.213ZM148.773 473.74C148.2 473.74 147.733 473.573 147.373 473.24C147.013 472.907 146.833 472.493 146.833 472C146.833 471.507 147.013 471.093 147.373 470.76C147.733 470.427 148.2 470.26 148.773 470.26C149.347 470.26 149.813 470.42 150.173 470.74C150.533 471.047 150.713 471.447 150.713 471.94C150.713 472.46 150.533 472.893 150.173 473.24C149.827 473.573 149.36 473.74 148.773 473.74ZM158.569 486.16C157.342 486.16 156.262 485.92 155.329 485.44C154.409 484.96 153.696 484.307 153.189 483.48C152.682 482.64 152.429 481.687 152.429 480.62C152.429 479.54 152.676 478.587 153.169 477.76C153.676 476.92 154.362 476.267 155.229 475.8C156.096 475.32 157.076 475.08 158.169 475.08C159.222 475.08 160.169 475.307 161.009 475.76C161.862 476.2 162.536 476.84 163.029 477.68C163.522 478.507 163.769 479.5 163.769 480.66C163.769 480.78 163.762 480.92 163.749 481.08C163.736 481.227 163.722 481.367 163.709 481.5H154.969V479.68H162.069L160.869 480.22C160.869 479.66 160.756 479.173 160.529 478.76C160.302 478.347 159.989 478.027 159.589 477.8C159.189 477.56 158.722 477.44 158.189 477.44C157.656 477.44 157.182 477.56 156.769 477.8C156.369 478.027 156.056 478.353 155.829 478.78C155.602 479.193 155.489 479.687 155.489 480.26V480.74C155.489 481.327 155.616 481.847 155.869 482.3C156.136 482.74 156.502 483.08 156.969 483.32C157.449 483.547 158.009 483.66 158.649 483.66C159.222 483.66 159.722 483.573 160.149 483.4C160.589 483.227 160.989 482.967 161.349 482.62L163.009 484.42C162.516 484.98 161.896 485.413 161.149 485.72C160.402 486.013 159.542 486.16 158.569 486.16ZM172.386 475.08C173.24 475.08 174 475.253 174.666 475.6C175.346 475.933 175.88 476.453 176.266 477.16C176.653 477.853 176.846 478.747 176.846 479.84V486H173.726V480.32C173.726 479.453 173.533 478.813 173.146 478.4C172.773 477.987 172.24 477.78 171.546 477.78C171.053 477.78 170.606 477.887 170.206 478.1C169.82 478.3 169.513 478.613 169.286 479.04C169.073 479.467 168.966 480.013 168.966 480.68V486H165.846V475.24H168.826V478.22L168.266 477.32C168.653 476.6 169.206 476.047 169.926 475.66C170.646 475.273 171.466 475.08 172.386 475.08ZM184.074 486.16C182.808 486.16 181.821 485.84 181.114 485.2C180.408 484.547 180.054 483.58 180.054 482.3V472.86H183.174V482.26C183.174 482.713 183.294 483.067 183.534 483.32C183.774 483.56 184.101 483.68 184.514 483.68C185.008 483.68 185.428 483.547 185.774 483.28L186.614 485.48C186.294 485.707 185.908 485.88 185.454 486C185.014 486.107 184.554 486.16 184.074 486.16ZM178.394 477.88V475.48H185.854V477.88H178.394ZM193.374 486.16C192.147 486.16 191.067 485.92 190.134 485.44C189.214 484.96 188.5 484.307 187.994 483.48C187.487 482.64 187.234 481.687 187.234 480.62C187.234 479.54 187.48 478.587 187.974 477.76C188.48 476.92 189.167 476.267 190.034 475.8C190.9 475.32 191.88 475.08 192.974 475.08C194.027 475.08 194.974 475.307 195.814 475.76C196.667 476.2 197.34 476.84 197.834 477.68C198.327 478.507 198.574 479.5 198.574 480.66C198.574 480.78 198.567 480.92 198.554 481.08C198.54 481.227 198.527 481.367 198.514 481.5H189.774V479.68H196.874L195.674 480.22C195.674 479.66 195.56 479.173 195.334 478.76C195.107 478.347 194.794 478.027 194.394 477.8C193.994 477.56 193.527 477.44 192.994 477.44C192.46 477.44 191.987 477.56 191.574 477.8C191.174 478.027 190.86 478.353 190.634 478.78C190.407 479.193 190.294 479.687 190.294 480.26V480.74C190.294 481.327 190.42 481.847 190.674 482.3C190.94 482.74 191.307 483.08 191.774 483.32C192.254 483.547 192.814 483.66 193.454 483.66C194.027 483.66 194.527 483.573 194.954 483.4C195.394 483.227 195.794 482.967 196.154 482.62L197.814 484.42C197.32 484.98 196.7 485.413 195.954 485.72C195.207 486.013 194.347 486.16 193.374 486.16ZM204.271 486.16C203.351 486.16 202.464 486.053 201.611 485.84C200.771 485.613 200.104 485.333 199.611 485L200.651 482.76C201.144 483.067 201.724 483.32 202.391 483.52C203.071 483.707 203.738 483.8 204.391 483.8C205.111 483.8 205.618 483.713 205.911 483.54C206.218 483.367 206.371 483.127 206.371 482.82C206.371 482.567 206.251 482.38 206.011 482.26C205.784 482.127 205.478 482.027 205.091 481.96C204.704 481.893 204.278 481.827 203.811 481.76C203.358 481.693 202.898 481.607 202.431 481.5C201.964 481.38 201.538 481.207 201.151 480.98C200.764 480.753 200.451 480.447 200.211 480.06C199.984 479.673 199.871 479.173 199.871 478.56C199.871 477.88 200.064 477.28 200.451 476.76C200.851 476.24 201.424 475.833 202.171 475.54C202.918 475.233 203.811 475.08 204.851 475.08C205.584 475.08 206.331 475.16 207.091 475.32C207.851 475.48 208.484 475.713 208.991 476.02L207.951 478.24C207.431 477.933 206.904 477.727 206.371 477.62C205.851 477.5 205.344 477.44 204.851 477.44C204.158 477.44 203.651 477.533 203.331 477.72C203.011 477.907 202.851 478.147 202.851 478.44C202.851 478.707 202.964 478.907 203.191 479.04C203.431 479.173 203.744 479.28 204.131 479.36C204.518 479.44 204.938 479.513 205.391 479.58C205.858 479.633 206.324 479.72 206.791 479.84C207.258 479.96 207.678 480.133 208.051 480.36C208.438 480.573 208.751 480.873 208.991 481.26C209.231 481.633 209.351 482.127 209.351 482.74C209.351 483.407 209.151 484 208.751 484.52C208.351 485.027 207.771 485.427 207.011 485.72C206.264 486.013 205.351 486.16 204.271 486.16ZM217.05 486V475.5H218.41V478.36L218.27 477.86C218.564 477.06 219.057 476.453 219.75 476.04C220.444 475.613 221.304 475.4 222.33 475.4V476.78C222.277 476.78 222.224 476.78 222.17 476.78C222.117 476.767 222.064 476.76 222.01 476.76C220.904 476.76 220.037 477.1 219.41 477.78C218.784 478.447 218.47 479.4 218.47 480.64V486H217.05ZM229.284 486.1C228.19 486.1 227.23 485.873 226.404 485.42C225.577 484.953 224.93 484.32 224.464 483.52C223.997 482.707 223.764 481.78 223.764 480.74C223.764 479.7 223.984 478.78 224.424 477.98C224.877 477.18 225.49 476.553 226.264 476.1C227.05 475.633 227.93 475.4 228.904 475.4C229.89 475.4 230.764 475.627 231.524 476.08C232.297 476.52 232.904 477.147 233.344 477.96C233.784 478.76 234.004 479.687 234.004 480.74C234.004 480.807 233.997 480.88 233.984 480.96C233.984 481.027 233.984 481.1 233.984 481.18H224.844V480.12H233.224L232.664 480.54C232.664 479.78 232.497 479.107 232.164 478.52C231.844 477.92 231.404 477.453 230.844 477.12C230.284 476.787 229.637 476.62 228.904 476.62C228.184 476.62 227.537 476.787 226.964 477.12C226.39 477.453 225.944 477.92 225.624 478.52C225.304 479.12 225.144 479.807 225.144 480.58V480.8C225.144 481.6 225.317 482.307 225.664 482.92C226.024 483.52 226.517 483.993 227.144 484.34C227.784 484.673 228.51 484.84 229.324 484.84C229.964 484.84 230.557 484.727 231.104 484.5C231.664 484.273 232.144 483.927 232.544 483.46L233.344 484.38C232.877 484.94 232.29 485.367 231.584 485.66C230.89 485.953 230.124 486.1 229.284 486.1ZM241.374 489.98C240.414 489.98 239.494 489.84 238.614 489.56C237.734 489.28 237.021 488.88 236.474 488.36L237.194 487.28C237.687 487.72 238.294 488.067 239.014 488.32C239.747 488.587 240.521 488.72 241.334 488.72C242.667 488.72 243.647 488.407 244.274 487.78C244.901 487.167 245.214 486.207 245.214 484.9V482.28L245.414 480.48L245.274 478.68V475.5H246.634V484.72C246.634 486.533 246.187 487.86 245.294 488.7C244.414 489.553 243.107 489.98 241.374 489.98ZM241.114 485.6C240.114 485.6 239.214 485.387 238.414 484.96C237.614 484.52 236.981 483.913 236.514 483.14C236.061 482.367 235.834 481.48 235.834 480.48C235.834 479.48 236.061 478.6 236.514 477.84C236.981 477.067 237.614 476.467 238.414 476.04C239.214 475.613 240.114 475.4 241.114 475.4C242.047 475.4 242.887 475.593 243.634 475.98C244.381 476.367 244.974 476.94 245.414 477.7C245.854 478.46 246.074 479.387 246.074 480.48C246.074 481.573 245.854 482.5 245.414 483.26C244.974 484.02 244.381 484.6 243.634 485C242.887 485.4 242.047 485.6 241.114 485.6ZM241.254 484.34C242.027 484.34 242.714 484.18 243.314 483.86C243.914 483.527 244.387 483.073 244.734 482.5C245.081 481.913 245.254 481.24 245.254 480.48C245.254 479.72 245.081 479.053 244.734 478.48C244.387 477.907 243.914 477.46 243.314 477.14C242.714 476.807 242.027 476.64 241.254 476.64C240.494 476.64 239.807 476.807 239.194 477.14C238.594 477.46 238.121 477.907 237.774 478.48C237.441 479.053 237.274 479.72 237.274 480.48C237.274 481.24 237.441 481.913 237.774 482.5C238.121 483.073 238.594 483.527 239.194 483.86C239.807 484.18 240.494 484.34 241.254 484.34ZM250.585 486V475.5H252.005V486H250.585ZM251.305 473.18C251.012 473.18 250.765 473.08 250.565 472.88C250.365 472.68 250.265 472.44 250.265 472.16C250.265 471.88 250.365 471.647 250.565 471.46C250.765 471.26 251.012 471.16 251.305 471.16C251.599 471.16 251.845 471.253 252.045 471.44C252.245 471.627 252.345 471.86 252.345 472.14C252.345 472.433 252.245 472.68 252.045 472.88C251.859 473.08 251.612 473.18 251.305 473.18ZM258.777 486.1C257.91 486.1 257.09 485.98 256.317 485.74C255.543 485.487 254.937 485.173 254.497 484.8L255.137 483.68C255.563 484 256.11 484.28 256.777 484.52C257.443 484.747 258.143 484.86 258.877 484.86C259.877 484.86 260.597 484.707 261.037 484.4C261.477 484.08 261.697 483.66 261.697 483.14C261.697 482.753 261.57 482.453 261.317 482.24C261.077 482.013 260.757 481.847 260.357 481.74C259.957 481.62 259.51 481.52 259.017 481.44C258.523 481.36 258.03 481.267 257.537 481.16C257.057 481.053 256.617 480.9 256.217 480.7C255.817 480.487 255.49 480.2 255.237 479.84C254.997 479.48 254.877 479 254.877 478.4C254.877 477.827 255.037 477.313 255.357 476.86C255.677 476.407 256.143 476.053 256.757 475.8C257.383 475.533 258.143 475.4 259.037 475.4C259.717 475.4 260.397 475.493 261.077 475.68C261.757 475.853 262.317 476.087 262.757 476.38L262.137 477.52C261.67 477.2 261.17 476.973 260.637 476.84C260.103 476.693 259.57 476.62 259.037 476.62C258.09 476.62 257.39 476.787 256.937 477.12C256.497 477.44 256.277 477.853 256.277 478.36C256.277 478.76 256.397 479.073 256.637 479.3C256.89 479.527 257.217 479.707 257.617 479.84C258.03 479.96 258.477 480.06 258.957 480.14C259.45 480.22 259.937 480.32 260.417 480.44C260.91 480.547 261.357 480.7 261.757 480.9C262.17 481.087 262.497 481.36 262.737 481.72C262.99 482.067 263.117 482.527 263.117 483.1C263.117 483.713 262.943 484.247 262.597 484.7C262.263 485.14 261.77 485.487 261.117 485.74C260.477 485.98 259.697 486.1 258.777 486.1ZM269.042 486.1C268.056 486.1 267.296 485.833 266.762 485.3C266.229 484.767 265.962 484.013 265.962 483.04V473.18H267.382V482.96C267.382 483.573 267.536 484.047 267.842 484.38C268.162 484.713 268.616 484.88 269.202 484.88C269.829 484.88 270.349 484.7 270.762 484.34L271.262 485.36C270.982 485.613 270.642 485.8 270.242 485.92C269.856 486.04 269.456 486.1 269.042 486.1ZM264.082 476.68V475.5H270.582V476.68H264.082ZM273.847 486V475.5H275.207V478.36L275.067 477.86C275.361 477.06 275.854 476.453 276.547 476.04C277.241 475.613 278.101 475.4 279.127 475.4V476.78C279.074 476.78 279.021 476.78 278.967 476.78C278.914 476.767 278.861 476.76 278.807 476.76C277.701 476.76 276.834 477.1 276.207 477.78C275.581 478.447 275.267 479.4 275.267 480.64V486H273.847ZM287.517 486V483.68L287.457 483.3V479.42C287.457 478.527 287.204 477.84 286.697 477.36C286.204 476.88 285.464 476.64 284.477 476.64C283.797 476.64 283.15 476.753 282.537 476.98C281.924 477.207 281.404 477.507 280.977 477.88L280.337 476.82C280.87 476.367 281.51 476.02 282.257 475.78C283.004 475.527 283.79 475.4 284.617 475.4C285.977 475.4 287.024 475.74 287.757 476.42C288.504 477.087 288.877 478.107 288.877 479.48V486H287.517ZM283.897 486.1C283.11 486.1 282.424 485.973 281.837 485.72C281.264 485.453 280.824 485.093 280.517 484.64C280.21 484.173 280.057 483.64 280.057 483.04C280.057 482.493 280.184 482 280.437 481.56C280.704 481.107 281.13 480.747 281.717 480.48C282.317 480.2 283.117 480.06 284.117 480.06H287.737V481.12H284.157C283.144 481.12 282.437 481.3 282.037 481.66C281.65 482.02 281.457 482.467 281.457 483C281.457 483.6 281.69 484.08 282.157 484.44C282.624 484.8 283.277 484.98 284.117 484.98C284.917 484.98 285.604 484.8 286.177 484.44C286.764 484.067 287.19 483.533 287.457 482.84L287.777 483.82C287.51 484.513 287.044 485.067 286.377 485.48C285.724 485.893 284.897 486.1 283.897 486.1ZM296.914 486.1C295.914 486.1 295.014 485.873 294.214 485.42C293.427 484.967 292.807 484.34 292.354 483.54C291.901 482.727 291.674 481.793 291.674 480.74C291.674 479.673 291.901 478.74 292.354 477.94C292.807 477.14 293.427 476.52 294.214 476.08C295.014 475.627 295.914 475.4 296.914 475.4C297.834 475.4 298.654 475.607 299.374 476.02C300.107 476.433 300.687 477.04 301.114 477.84C301.554 478.627 301.774 479.593 301.774 480.74C301.774 481.873 301.561 482.84 301.134 483.64C300.707 484.44 300.127 485.053 299.394 485.48C298.674 485.893 297.847 486.1 296.914 486.1ZM297.014 484.84C297.761 484.84 298.427 484.673 299.014 484.34C299.614 483.993 300.081 483.513 300.414 482.9C300.761 482.273 300.934 481.553 300.934 480.74C300.934 479.913 300.761 479.193 300.414 478.58C300.081 477.967 299.614 477.493 299.014 477.16C298.427 476.813 297.761 476.64 297.014 476.64C296.281 476.64 295.621 476.813 295.034 477.16C294.447 477.493 293.981 477.967 293.634 478.58C293.287 479.193 293.114 479.913 293.114 480.74C293.114 481.553 293.287 482.273 293.634 482.9C293.981 483.513 294.447 483.993 295.034 484.34C295.621 484.673 296.281 484.84 297.014 484.84ZM300.974 486V482.84L301.114 480.72L300.914 478.6V471.16H302.334V486H300.974ZM310.569 486.1C309.555 486.1 308.642 485.873 307.829 485.42C307.029 484.953 306.395 484.32 305.929 483.52C305.462 482.707 305.229 481.78 305.229 480.74C305.229 479.687 305.462 478.76 305.929 477.96C306.395 477.16 307.029 476.533 307.829 476.08C308.629 475.627 309.542 475.4 310.569 475.4C311.609 475.4 312.529 475.627 313.329 476.08C314.142 476.533 314.775 477.16 315.229 477.96C315.695 478.76 315.929 479.687 315.929 480.74C315.929 481.78 315.695 482.707 315.229 483.52C314.775 484.32 314.142 484.953 313.329 485.42C312.515 485.873 311.595 486.1 310.569 486.1ZM310.569 484.84C311.329 484.84 312.002 484.673 312.589 484.34C313.175 483.993 313.635 483.513 313.969 482.9C314.315 482.273 314.489 481.553 314.489 480.74C314.489 479.913 314.315 479.193 313.969 478.58C313.635 477.967 313.175 477.493 312.589 477.16C312.002 476.813 311.335 476.64 310.589 476.64C309.842 476.64 309.175 476.813 308.589 477.16C308.002 477.493 307.535 477.967 307.189 478.58C306.842 479.193 306.669 479.913 306.669 480.74C306.669 481.553 306.842 482.273 307.189 482.9C307.535 483.513 308.002 483.993 308.589 484.34C309.175 484.673 309.835 484.84 310.569 484.84ZM321.648 486.1C320.781 486.1 319.961 485.98 319.188 485.74C318.414 485.487 317.808 485.173 317.368 484.8L318.008 483.68C318.434 484 318.981 484.28 319.648 484.52C320.314 484.747 321.014 484.86 321.748 484.86C322.748 484.86 323.468 484.707 323.908 484.4C324.348 484.08 324.568 483.66 324.568 483.14C324.568 482.753 324.441 482.453 324.188 482.24C323.948 482.013 323.628 481.847 323.228 481.74C322.828 481.62 322.381 481.52 321.888 481.44C321.394 481.36 320.901 481.267 320.408 481.16C319.928 481.053 319.488 480.9 319.088 480.7C318.688 480.487 318.361 480.2 318.108 479.84C317.868 479.48 317.748 479 317.748 478.4C317.748 477.827 317.908 477.313 318.228 476.86C318.548 476.407 319.014 476.053 319.628 475.8C320.254 475.533 321.014 475.4 321.908 475.4C322.588 475.4 323.268 475.493 323.948 475.68C324.628 475.853 325.188 476.087 325.628 476.38L325.008 477.52C324.541 477.2 324.041 476.973 323.508 476.84C322.974 476.693 322.441 476.62 321.908 476.62C320.961 476.62 320.261 476.787 319.808 477.12C319.368 477.44 319.148 477.853 319.148 478.36C319.148 478.76 319.268 479.073 319.508 479.3C319.761 479.527 320.088 479.707 320.488 479.84C320.901 479.96 321.348 480.06 321.828 480.14C322.321 480.22 322.808 480.32 323.288 480.44C323.781 480.547 324.228 480.7 324.628 480.9C325.041 481.087 325.368 481.36 325.608 481.72C325.861 482.067 325.988 482.527 325.988 483.1C325.988 483.713 325.814 484.247 325.468 484.7C325.134 485.14 324.641 485.487 323.988 485.74C323.348 485.98 322.568 486.1 321.648 486.1Z" fill="white"/>
<circle opacity="0.56" r="5.89671" transform="matrix(1 0 0 -1 154.76 108.346)" fill="#69EAEF"/>
<circle opacity="0.56" r="2.94835" transform="matrix(1 0 0 -1 161.64 73.9484)" fill="#69EAEF"/>
<circle opacity="0.56" r="4.91392" transform="matrix(1 0 0 -1 243.211 102.449)" fill="#69EAEF"/>
<circle opacity="0.56" r="3.43975" transform="matrix(1 0 0 -1 216.185 141.269)" fill="#69EAEF"/>
<circle opacity="0.56" r="4.42253" transform="matrix(1 0 0 -1 190.632 88.1987)" fill="#69EAEF"/>
<circle opacity="0.56" r="5.40532" transform="matrix(1 0 0 -1 169.994 165.839)" fill="#69EAEF"/>
<mask id="mask0_957_25" style="mask-type:alpha" maskUnits="userSpaceOnUse" x="140" y="121" width="110" height="110">
<circle cx="194.563" cy="175.667" r="54.5445" fill="#E8E8E8"/>
</mask>
<g mask="url(#mask0_957_25)">
<path d="M-50.3243 187.829C-63.8069 187.402 -83.6057 178.584 -83.6057 178.584V340.216H249.208V178.584C249.208 178.584 233.416 170.464 222.398 169.339C201.379 167.192 192.67 188.497 171.552 187.829C158.069 187.402 138.27 178.584 138.27 178.584C138.27 178.584 122.478 170.464 111.46 169.339C90.4408 167.192 81.7321 188.497 60.6138 187.829C47.1312 187.402 27.3323 178.584 27.3323 178.584C27.3323 178.584 11.5399 170.464 0.522308 169.339C-20.4973 167.192 -29.2059 188.497 -50.3243 187.829Z" fill="#004F9D"/>
<path d="M3.27836 187.046C-10.2042 186.62 -30.0031 177.802 -30.0031 177.802V339.434H302.811V177.802C302.811 177.802 287.019 169.682 276.001 168.557C254.981 166.41 246.273 187.715 225.154 187.046C211.672 186.62 191.873 177.802 191.873 177.802C191.873 177.802 176.081 169.682 165.063 168.557C144.043 166.41 135.335 187.715 114.216 187.046C100.734 186.62 80.935 177.802 80.935 177.802C80.935 177.802 65.1426 169.682 54.125 168.557C33.1054 166.41 24.3967 187.715 3.27836 187.046Z" fill="url(#paint1_linear_957_25)"/>
</g>
<circle opacity="0.56" r="2.94835" transform="matrix(1 0 0 -1 217.659 181.072)" fill="#69EAEF"/>
<path d="M91.2235 144.365V117.142H84V150.9H108.029V144.365H91.2235Z" fill="white"/>
<path d="M123.449 124.906C119.911 124.906 116.422 125.889 112.835 127.707L115.243 132.473C117.257 131.441 119.469 130.655 121.827 130.655C126.004 130.655 127.724 133.014 127.724 135.716V136.257C125.562 135.372 123.252 134.93 121.188 134.93C115.341 134.93 110.673 138.37 110.673 143.382C110.673 148.247 114.8 151.49 120.206 151.49C123.007 151.49 125.906 150.36 127.724 148.345V150.9H134.653V135.716C134.653 129.083 130.083 124.906 123.449 124.906ZM121.827 146.527C119.37 146.527 117.503 145.249 117.503 143.186C117.503 141.122 119.616 139.598 122.22 139.598C124.186 139.598 126.102 139.942 127.724 140.581V142.891C127.183 145.249 124.579 146.527 121.827 146.527Z" fill="white"/>
<path d="M156.209 125.495V140.532C156.209 143.284 153.851 145.446 150.853 145.446C148.003 145.446 146.038 143.284 146.038 140.139V125.495H139.109V141.662C139.109 147.461 142.991 151.49 148.544 151.49C151.836 151.49 154.686 150.016 156.209 147.756V150.9H163.335V125.495H156.209Z" fill="white"/>
<path d="M183.665 124.906C180.372 124.906 177.522 126.38 175.999 128.64V125.495H168.825V150.9H175.999V135.864C175.999 133.112 178.358 130.95 181.355 130.95C184.205 130.95 186.171 133.112 186.171 136.257V150.9H193.05V134.734C193.05 128.935 189.168 124.906 183.665 124.906Z" fill="white"/>
<path d="M216.967 116.552V129.083C214.952 126.478 211.954 124.906 208.416 124.906C201.635 124.906 196.77 130.409 196.77 138.173C196.77 145.987 201.635 151.49 208.416 151.49C211.954 151.49 214.952 149.918 216.967 147.313V150.9H224.141V116.552H216.967ZM210.48 145.446C206.549 145.446 203.748 142.448 203.748 138.173C203.748 133.947 206.549 130.95 210.48 130.95C214.313 130.95 216.967 133.947 216.967 138.173C216.967 142.448 214.313 145.446 210.48 145.446Z" fill="white"/>
<path d="M237.135 130.262V125.495H229.961V150.9H237.135V138.763C237.135 133.997 240.526 130.95 245.833 130.95V124.906C241.951 124.906 238.806 126.97 237.135 130.262Z" fill="white"/>
<path d="M253.32 122.007C255.433 122.007 257.202 120.238 257.202 118.075C257.202 116.061 255.433 114.243 253.32 114.243C251.109 114.243 249.389 116.061 249.389 118.075C249.389 120.238 251.109 122.007 253.32 122.007ZM249.684 150.9H256.858V125.495H249.684V150.9Z" fill="white"/>
<path d="M271.344 124.12C271.344 122.449 272.376 121.269 273.702 121.269C274.685 121.269 275.668 121.613 276.159 122.105L277.879 117.731C276.405 116.405 274.095 115.52 272.081 115.52C267.56 115.52 264.415 118.714 264.415 123.284V125.495H260.926V131.294H264.415V150.9H271.344V131.294H276.847V125.495H271.344V124.12Z" fill="white"/>
<path d="M287.26 159.745C291.29 159.745 294.484 157.141 296.449 152.178L306.818 125.495H299.496L293.206 143.333L286.523 125.495H279.103L289.668 151.146L288.98 152.62C288.292 153.8 287.113 154.389 285.786 154.389C284.951 154.389 283.624 153.947 282.445 153.259L280.921 158.173C282.641 159.107 285.147 159.745 287.26 159.745Z" fill="white"/>
<path d="M150.5 786.272L158.25 793.419V805.824H155.15V796.294H145.85V805.824H142.75V793.419L150.5 786.272M150.5 782L135 796.294H139.65V809H148.95V799.471H152.05V809H161.35V796.294H166L150.5 782Z" fill="#0066CC"/>
<path d="M62.8167 802.983L65.1667 805.333L73.5 797L65.1667 788.667L62.8167 791.017L67.1167 795.333H51V798.667H67.1167L62.8167 802.983ZM77.6667 782H54.3333C52.4833 782 51 783.5 51 785.333V792H54.3333V785.333H77.6667V808.667H54.3333V802H51V808.667C51 810.5 52.4833 812 54.3333 812H77.6667C79.5 812 81 810.5 81 808.667V785.333C81 783.5 79.5 782 77.6667 782Z" fill="#1F1F1F"/>
</g>
<defs>
<filter id="filter0_d_957_25" x="-4" y="760" width="398" height="87" filterUnits="userSpaceOnUse" color-interpolation-filters="sRGB">
<feFlood flood-opacity="0" result="BackgroundImageFix"/>
<feColorMatrix in="SourceAlpha" type="matrix" values="0 0 0 0 0 0 0 0 0 0 0 0 0 0 0 0 0 0 127 0" result="hardAlpha"/>
<feOffset dy="-1"/>
<feGaussianBlur stdDeviation="2"/>
<feColorMatrix type="matrix" values="0 0 0 0 0 0 0 0 0 0 0 0 0 0 0 0 0 0 0.25 0"/>
<feBlend mode="normal" in2="BackgroundImageFix" result="effect1_dropShadow_957_25"/>
<feBlend mode="normal" in="SourceGraphic" in2="effect1_dropShadow_957_25" result="shape"/>
</filter>
<filter id="filter1_f_957_25" x="90" y="725" width="121" height="107" filterUnits="userSpaceOnUse" color-interpolation-filters="sRGB">
<feFlood flood-opacity="0" result="BackgroundImageFix"/>
<feBlend mode="normal" in="SourceGraphic" in2="BackgroundImageFix" result="shape"/>
<feGaussianBlur stdDeviation="21.5" result="effect1_foregroundBlur_957_25"/>
</filter>
<linearGradient id="paint0_linear_957_25" x1="195" y1="276.937" x2="-21.1536" y2="696.585" gradientUnits="userSpaceOnUse">
<stop stop-color="#0066CC"/>
<stop offset="1" stop-color="#69EAEF"/>
</linearGradient>
<linearGradient id="paint1_linear_957_25" x1="136.404" y1="168.405" x2="192.639" y2="272.962" gradientUnits="userSpaceOnUse">
<stop offset="0.336554" stop-color="#69EAEF"/>
<stop offset="1" stop-color="#2977C5" stop-opacity="0"/>
</linearGradient>
<clipPath id="clip0_957_25">
<rect width="390" height="844" fill="white"/>
</clipPath>
</defs>
</svg>
